<svg width="25" height="30" viewBox="0 0 25 30" fill="none" xmlns="http://www.w3.org/2000/svg">
  <path d="M17.016 4.789a7.2 7.2 0 0 0 1.274-2.21c.289-.821.421-1.701.322-2.579-.773.03-1.627.282-2.426.684s-1.544.956-2.097 1.59a7.1 7.1 0 0 0-1.275 2.095c-.312.803-.47 1.684-.354 2.545.86.065 1.733-.147 2.52-.538a6.4 6.4 0 0 0 2.036-1.587m5.922 15.878c1.02.947 2.038 1.33 2.062 1.34-.017.053-.177.591-.52 1.381s-.866 1.83-1.605 2.886c-.641.915-1.291 1.825-2.046 2.513-.754.689-1.607 1.153-2.655 1.171-1.028.019-1.707-.28-2.423-.582s-1.468-.61-2.643-.61-1.946.29-2.667.587c-.721.298-1.39.605-2.365.642-1.01.037-1.898-.457-2.697-1.187S3.873 27.11 3.227 26.2C1.913 24.338.75 21.706.253 18.967c-.494-2.738-.322-5.586 1.03-7.88a7.74 7.74 0 0 1 2.703-2.722 7.34 7.34 0 0 1 3.65-1.04c.991-.018 1.956.308 2.824.638s1.638.666 2.243.666c.606 0 1.478-.402 2.497-.777 1.019-.374 2.185-.716 3.38-.598.502.02 1.455.12 2.507.536a6.8 6.8 0 0 1 3.11 2.44c-.074.043-.911.522-1.727 1.464-2.274 2.624-2.095 6.591.468 8.973" fill-rule="evenodd" clip-rule="evenodd" fill="#000"/>
</svg>
