<svg width="31" height="31" viewBox="0 0 31 31" fill="none" xmlns="http://www.w3.org/2000/svg">
  <path fill-rule="evenodd" clip-rule="evenodd" d="M14.349.043C6.182.635-.671 7.745.052 16.757.704 24.886 7.8 31.678 16.798 30.946c8.019-.653 14.877-7.733 14.148-16.68C30.284 6.13 23.28-.606 14.349.042m2.61 10.085a639 639 0 0 1-.048 3.295c.715-.003 3.214-.104 3.713.072.08.349-.547 3.132-.677 3.935l-3.118.018v9.74h-4.152c-.005.001-.109-9.77-.109-9.771L8.996 17.4l.055-3.87 3.549-.01.031-3.62c.27-4.692 3.753-4.629 8.069-4.387l.02 3.27c-1.305.046-3.769-.17-3.761 1.344" fill="#241F21"/>
</svg>
