<svg width="26" height="27" viewBox="0 0 26 27" fill="none" xmlns="http://www.w3.org/2000/svg">
  <path d="M26 13.801c0-.918-.074-1.837-.22-2.738H13.27v5.193h7.167c-.295 1.668-1.253 3.168-2.652 4.106v3.375h4.274C24.564 21.395 26 17.927 26 13.801" fill="#4285F4"/>
  <path d="M13.27 27c3.574 0 6.596-1.2 8.789-3.263l-4.274-3.375c-1.198.825-2.727 1.294-4.515 1.294-3.463 0-6.393-2.381-7.442-5.568H1.424v3.487C3.671 24.113 8.26 27 13.27 27" fill="#34A853"/>
  <path d="M5.826 16.088a8.3 8.3 0 0 1 0-5.176V7.444H1.424a13.6 13.6 0 0 0 0 12.112z" fill="#FBBC04"/>
  <path d="M13.27 5.344a7.08 7.08 0 0 1 5.086 2.025l3.775-3.843A12.54 12.54 0 0 0 13.271 0C8.258 0 3.67 2.887 1.423 7.444l4.404 3.488c1.049-3.207 3.98-5.588 7.442-5.588" fill="#EA4335"/>
</svg>
