<svg width="133" height="159" viewBox="0 0 133 159" fill="none" xmlns="http://www.w3.org/2000/svg">
  <path d="M83.486 32.806c.21-2.467.076-4.89-.228-7.292-.445-2.82-1.351-5.842-.67-8.717-3.05 4.134-6.247 8.462-8.523 13.195s-3.628 9.873-3.146 15.04c.273 2.842 1.136 5.521 1.41 8.363.185 2.155.2 4.332.215 6.509-.077 4.89.04 9.93 1.164 14.668s3.202 9.441 6.769 12.824c8.336 8.006 17.624 14.584 26.111 22.396-7.22-7.45-12.353-16.996-16.264-26.522-2.779-6.793-5.162-13.899-5.487-21.266-.436-9.618-2.138-19.599-1.351-29.198" fill="#739A40"/>
  <path d="M83.486 32.806c.188-2.639.011-5.405-.412-8.053s-1.19-5.253-.583-8.031l.193.15c-2.749 3.747-5.423 7.398-7.517 11.499-2.191 4.025-3.63 8.478-3.923 13.047-.231 2.296.052 4.526.506 6.734.455 2.208 1.006 4.491 1.042 6.84.112 2.252-.023 4.622-.084 6.895-.06 2.274.052 4.526.26 6.852.32 4.579 1.325 9.07 3.51 13.238a20.4 20.4 0 0 0 4.095 5.494c1.687 1.616 3.352 3.06 5.113 4.58 6.95 6.003 14.349 11.426 21.148 17.623l-.396.312c-4.813-4.967-8.685-10.751-11.913-16.965a108 108 0 0 1-4.329-9.386 107 107 0 0 1-3.589-9.741c-.95-3.366-1.631-6.678-1.82-10.227a206 206 0 0 0-.523-10.305c-.774-6.787-1.398-13.767-.778-20.556m0 0c-.524 6.864.175 13.747.874 20.63.339 3.357.528 6.906.695 10.284.264 3.452.945 6.765 1.97 10.034 1.025 3.268 2.221 6.516 3.493 9.666q1.906 4.726 4.328 9.386c3.207 6.042 7.003 11.923 11.72 16.815.097.075.118.246-.031.44-.075.096-.247.118-.343.043-6.725-6.293-14.05-11.813-20.924-17.913-1.761-1.52-3.351-3.06-5.038-4.677-1.686-1.616-2.977-3.544-4.02-5.59-2.089-4.093-3.191-8.66-3.682-13.216-.208-2.327-.32-4.579-.26-6.852-.036-2.349.121-4.547-.087-6.874-.111-2.252-.663-4.535-1.117-6.743-.455-2.208-.76-4.61-.528-6.905.367-4.666 1.978-9.14 4.17-13.166 2.19-4.026 4.94-7.773 7.688-11.521.075-.097.075-.097.172-.022 0 0 .096.075.022.172-.532 2.682.063 5.308.486 7.956.595 2.626.675 5.318.412 8.053" fill="#3D5530"/>
  <path d="M87.66 92.498c-1.312-2.1-2.303-4.414-3.293-6.729-.991-2.314-1.736-4.747-2.384-7.105-.573-2.455-1.145-4.91-1.547-7.386s-.46-4.997-.421-7.442c.133 2.424.46 4.997.861 7.473s.974 4.931 1.622 7.29c1.37 4.619 3.106 9.366 5.162 13.899" fill="#3D5530"/>
  <path d="M84.08 86.939c-4.428-10.855-5.756-21.32-5.54-31.98.082-2.101.164-4.203.61-6.177.532-2.682 2.172-8.991 2.526-14.44" stroke="#3D5530" stroke-width=".25" stroke-miterlimit="10" stroke-linecap="round" stroke-linejoin="round"/>
  <path d="M84.374 89.952c-4.113-9.065-6.33-18.98-7.078-28.995-.133-2.424-.19-4.944.019-7.41.502-7.036 3.97-16.104 4.192-23.976" stroke="#3D5530" stroke-width=".25" stroke-miterlimit="10" stroke-linecap="round" stroke-linejoin="round"/>
  <path d="M82.666 88.164c-4-11.607-7.358-23.644-6.115-35.828.37-3.271 1.104-6.415 2.084-9.677 1.012-3.701 2.031-9.408 2.676-14.632" stroke="#3D5530" stroke-width=".25" stroke-miterlimit="10" stroke-linecap="round" stroke-linejoin="round"/>
  <path d="M82.594 89.655c-5.16-12.506-8.445-26.033-7.012-39.462.686-6.275 2.272-12.315 4.03-18.377.725-2.532 1.235-5.386 1.594-8.046" stroke="#3D5530" stroke-width=".25" stroke-miterlimit="10" stroke-linecap="round" stroke-linejoin="round"/>
  <path d="M81.25 87.995c-7.388-17.016-10.04-36.55-4.433-54.169 1.259-3.82 2.71-7.49 3.7-11.363" stroke="#3D5530" stroke-width=".25" stroke-miterlimit="10" stroke-linecap="round" stroke-linejoin="round"/>
  <path d="M74.65 56.586c-.334-6.755.533-13.663 2.42-20.09.361-1.266.82-2.457 1.183-3.724 1.055-3.358 2.195-7.424 3.154-10.858M73.12 52.771c-.145-3.206-.387-6.487-.092-9.662.598-6.96 3.61-13.443 6.547-19.83M72.19 48.183c-.89-5.639-.236-11.474 2.071-16.647m12.384 57.082a69.6 69.6 0 0 1-4.155-14.202m5.165 15.294c-1.196-3.248-2.243-6.688-2.924-10m4.009 10.995c-1.034-2.658-1.8-5.262-2.417-8.06m3.577 8.959c-.442-1.426-.885-2.851-1.155-4.299m-9.905-3.188c-1.722-3.964-2.93-7.994-3.818-12.24" stroke="#3D5530" stroke-width=".25" stroke-miterlimit="10" stroke-linecap="round" stroke-linejoin="round"/>
  <path d="M128.372 118.01c-.237-.493-.473-.986-.27-1.448.698.696 1.374 1.22 2.223 1.723.461.203.923.406 1.213.63l.096.075.022.172c-.5 2.242-2.832-.338-3.284-1.152" fill="#BABB96" stroke="#3D5530" stroke-width=".25" stroke-miterlimit="10" stroke-linecap="round" stroke-linejoin="round"/>
  <path d="M124.93 123.85c.568-.334 1.136-.667 1.8-.926 1.007-.302 2.112-.529 3.001-1.078.246-.118.471-.408.352-.655-.355-.739-2.348.037-2.841.274-.889.548-1.756 1.268-2.312 2.385" fill="#BABB96"/>
  <path d="M124.93 123.85c.792-.624 1.875-1.023 2.786-1.4.493-.236 1.007-.302 1.5-.539.246-.118.493-.236.568-.333.15-.193.224-.29.031-.44-.29-.224-.879-.062-1.394.003s-1.007.302-1.425.442c-.793.624-1.489 1.322-2.066 2.267m0 0c.406-.923 1.176-1.718 2.066-2.267.492-.237.985-.474 1.403-.614.515-.065 1.008-.302 1.663.051.096.075.215.321.236.493.022.171-.224.29-.299.386l-.739.356c-.493.236-1.008.302-1.501.539-.932.205-1.94.507-2.829 1.056" fill="#3D5530"/>
  <path d="M107.399 101.759c-.846.891-1.401 2.008-1.86 3.199-.534 1.288-.853 2.897-.014 4.011.526.717 1.375 1.22 2.201 1.551.053-.269.009-.612-.034-.955-.314-1.79-.36-3.527.033-5.233.234-.901.565-1.728 1.09-2.404.374-.484 1.488-1.322 1.594-1.858-1.104.227-2.24.894-3.01 1.689" fill="#59794A"/>
  <path d="M107.495 101.834c-.621.601-.951 1.428-1.282 2.254s-.566 1.728-.725 2.532c-.159.805-.125 1.759.305 2.402.355.739 1.278 1.145 2.029 1.572l-.171.022c.128-.365-.109-.857-.078-1.297-.065-.515-.205-.933-.174-1.373-.034-.954-.067-1.908.07-2.884.138-.977.544-1.9.971-2.651.406-.923 1.488-1.322 1.841-1.977l.215.322c-1.169-.288-2.23.283-3.001 1.078m-.096-.075c.374-.483.77-.795 1.263-1.032s1.061-.57 1.672-.561c.172-.022.193.15.193.15l-.075.097c-.384 1.094-1.294 1.471-1.722 2.223s-.758 1.577-.896 2.554c-.234.901-.297 1.78-.263 2.735-.031.439.034.954.002 1.394-.031.44.206.932.003 1.394 0 0-.075.097-.171.022-.752-.428-1.578-.759-2.202-1.551-.623-.793-.754-1.822-.52-2.723.138-.976.566-1.728.897-2.554.695-.698 1.198-1.547 1.819-2.148" fill="#3D5530"/>
  <path d="M111.109 119.328c.911-.377 1.822-.754 2.83-1.056.171-.022.418-.14.686-.087s.633.181.901.234c.558.278 1.116.556 1.846.812-.396.312-.911.377-1.426.442-1.2.153-2.401.305-3.505.532-1.029.131-2.402.305-3.291.853-.087-.686 1.467-1.493 1.959-1.73" fill="#59794A"/>
  <path d="M111.109 119.328c.986-.473 1.875-1.022 3.054-1.346.247-.118.686-.087.88.063.268.053.558.278.751.427.462.203.945.578 1.406.781 0 0 .097.075.022.171-.546.505-1.425.443-2.09.701-.686.087-1.35.346-2.036.433l-2.134.358a8 8 0 0 0-1.94.507c-.171.022-.268-.053-.365-.128 0 0-.096-.075-.021-.171-.044-.343.277-.558.427-.752s.396-.311.643-.43c.567-.333.985-.474 1.403-.614m0 0c-.418.14-.814.452-1.21.764s-.696.698-.652 1.041l-.387-.299c.643-.43 1.404-.614 2.09-.701l2.059-.261c.686-.087 1.372-.174 2.155-.187.686-.087 1.469-.099 1.94-.507l.022.171c-.462-.203-1.095-.384-1.557-.587s-.923-.405-1.437-.34c-.836.28-2.037.433-3.023.906" fill="#3D5530"/>
  <path d="M109.867 114.344c-3.767-1.527-8.174-1.229-11.559.944-5.237 3.366-7.82 10.491-13.627 12.797-3.987 1.551-8.493.38-12.603-1.103-4.013-1.408-8.317-3.041-12.562-2.154 3.542-4.371 7.062-8.913 11.592-12.364 4.454-3.354 9.704-5.938 15.334-6.216 5.286-.235 10.49 1.632 15.471 3.789 2.575 1.068 5.731 2.585 7.954 4.307" fill="#739A40"/>
  <path d="M109.867 114.344c-4.475-1.611-9.771-.765-13.197 2.459-3.522 3.148-5.67 7.517-9.675 10.291-.964.645-2.121 1.141-3.3 1.465-1.18.323-2.38.476-3.528.36-2.445-.038-4.709-.71-6.898-1.478s-4.475-1.611-6.717-2.111c-2.339-.575-4.634-.806-6.939-.427-.075.097-.171.022-.193-.149l.075-.097c3.092-3.791 6.066-7.829 9.76-10.999 3.768-3.267 8.139-5.914 12.877-7.038 2.454-.572 4.953-.802 7.344-.496 2.467.21 4.903.86 7.189 1.703 2.285.843 4.593 1.857 6.804 2.797 2.307 1.014 4.465 2.222 6.398 3.72m0 0c-2.008-1.401-4.241-2.512-6.451-3.452-2.211-.939-4.519-1.954-6.88-2.7-4.646-1.59-9.601-2.181-14.34-1.057-4.737 1.124-9.033 3.674-12.726 6.844s-6.765 7.133-9.954 10.849l-.118-.246c2.38-.476 4.772-.17 7.036.502 2.339.575 4.453 1.439 6.814 2.186 2.263.671 4.527 1.342 6.876 1.306 1.222.019 2.348-.037 3.43-.435a10.4 10.4 0 0 0 3.13-1.443c3.833-2.753 6.078-7.046 9.771-10.217 1.81-1.536 4.103-2.699 6.408-3.078 2.401-.305 4.965-.02 7.004.941" fill="#3D5530"/>
  <path d="M60.01 124.592c2.91-3.159 6.713-5.471 10.753-7.291 3.964-1.723 8.047-3.2 12.367-4.184a66 66 0 0 1 12.984-1.386c4.376.142 8.72.724 12.958 1.842-4.269-.678-8.517-1.185-12.87-1.155-4.258.104-8.568.476-12.791 1.535-4.246.887-8.254 2.267-12.315 3.916-4.04 1.82-7.886 3.789-11.087 6.723" fill="#3D5530"/>
  <path d="M107.342 111.614c-5.447-5.148-13.118-7.225-20.466-8.123-7.422-.801-14.982-.626-22.32-2.136-16.091-3.187-30.386-14.882-36.58-30.045-1.25-2.978-2.178-6.172-4.092-8.893-1.914-2.72-4.727-4.28-7.986-3.867 4.211-1.842 23.135 7.871 34.545 13.309 7.889 3.792 16.043 6.244 24.007 9.94 3.52 1.644 6.87 3.31 10.09 5.342 8.934 5.84 15.067 17.088 22.802 24.473" fill="#739A40"/>
  <path d="M107.342 111.614c-1.762-1.519-3.673-2.846-5.809-3.882s-4.325-1.804-6.589-2.476c-4.603-1.246-9.193-1.709-13.934-1.979s-9.384-.466-14.093-1.175c-4.71-.71-9.259-2.225-13.51-4.126-8.618-4.048-15.976-10.522-21.16-18.405-1.215-2.025-2.43-4.05-3.4-6.192a100 100 0 0 1-2.66-6.548c-.97-2.143-2.035-4.36-3.797-5.88-1.686-1.616-4.068-2.534-6.373-2.155-.172.022-.172.022-.194-.15 0 0-.021-.171.15-.193 1.157-.495 2.327-.208 3.474-.092 1.073.213 2.168.597 3.166.906 2.092.693 4.281 1.461 6.395 2.326 4.229 1.73 8.307 3.652 12.386 5.575 4.078 1.922 8.082 3.942 12.236 5.768 4.153 1.826 8.36 3.384 12.492 5.038 4.206 1.558 8.285 3.481 12.385 5.575 2.04.962 4.004 2.02 5.915 3.346 1.986 1.23 3.651 2.674 5.338 4.29 6.456 6.24 11.2 14.092 17.582 20.429m.096.075c-6.703-6.122-11.371-14.07-17.903-20.214a31 31 0 0 0-5.316-4.118 62 62 0 0 0-5.893-3.174l-6.118-2.885c-2.04-.961-4.153-1.826-6.17-2.616-4.133-1.654-8.436-3.287-12.59-5.113-4.153-1.826-8.157-3.846-12.235-5.768-4.079-1.923-8.157-3.846-12.311-5.672a131 131 0 0 0-6.32-2.423c-1.095-.384-2.168-.596-3.24-.809-1.074-.212-2.221-.328-3.229-.026l-.043-.343c2.401-.305 4.88.688 6.567 2.304 1.783 1.691 2.849 3.91 3.721 5.977.895 2.24 1.692 4.405 2.661 6.548.4 1.082 1.044 2.046 1.615 3.107.57 1.06 1.215 2.024 1.86 2.988 5.259 7.787 12.691 14.164 21.117 18.063 4.25 1.901 8.778 3.244 13.412 4.05 4.634.807 9.353.905 14.019 1.272 4.665.367 9.427.808 14.03 2.054 4.528 1.343 8.971 3.394 12.366 6.798" fill="#3D5530"/>
  <path d="M22.444 60.683c3.436 2.352 6.475 5.017 9.612 7.757 3.04 2.664 6.026 5.597 9.066 8.262s6.251 5.307 9.665 7.489c3.415 2.18 7.053 4.072 10.948 5.234 3.82 1.258 7.843 2.055 11.888 3.024 1.974.446 4.023.796 6.018 1.415 2.071.521 3.992 1.236 5.838 2.048 3.789 1.698 7.353 3.686 10.714 6.136 3.36 2.449 6.401 5.114 9.387 8.047-2.965-2.762-6.176-5.405-9.515-7.683s-7-4.34-10.767-5.867c-1.92-.715-3.842-1.43-5.816-1.877l-5.922-1.34c-4.023-.797-8.046-1.594-11.962-2.927-3.992-1.236-7.63-3.128-11.142-5.384-3.51-2.256-6.722-4.9-9.687-7.66-3.061-2.837-5.951-5.695-8.916-8.456-3.083-3.008-6.123-5.672-9.41-8.218" fill="#3D5530"/>
  <path d="M15.127 59.345c1.47-.1 2.982.145 4.27.678.73.256 1.406.78 2.06 1.133.946.578 1.794 1.08 2.738 1.657-.613-1.403-1.817-2.645-3.298-3.329-1.02-.48-2.21-.94-3.262-.98-.44-.032-1.05-.041-1.469.099-.418.14-.889.549-1.039.742" fill="#BABB96"/>
  <path d="M15.224 59.42c.761-.184 1.64-.121 2.52-.059.805.16 1.706.394 2.457.822.752.427 1.428.952 2.083 1.304.752.428 1.332.877 2.083 1.305l-.15.193c-.452-.814-.978-1.532-1.655-2.056a9.3 9.3 0 0 0-2.254-1.283c-.827-.33-1.653-.662-2.533-.724l-1.319-.094c-.536-.107-1.007.302-1.232.592m-.097-.075.45-.58c.15-.193.396-.312.642-.43.515-.066.858-.109 1.47-.1.954-.033 1.952.276 2.778.607s1.674.833 2.373 1.529c.698.696 1.225 1.413 1.527 2.42.097.076.022.172-.15.194 0 0-.096-.075-.171.022-.677-.524-1.332-.877-2.083-1.305s-1.481-.683-2.233-1.11a7.4 7.4 0 0 0-2.285-.844c-.634-.181-1.513-.244-2.318-.403" fill="#3D5530"/>
  <path d="M83.549 31.926c-.558 23.079 4.9 46.179 15.533 66.792 2.206 4.339 4.756 8.634 8.397 11.92-3.941-2.899-6.512-7.366-9.757-10.963-2.213-2.334-4.995-4.334-6.737-7.076-1.097-1.778-1.626-3.89-2.477-5.787-1.013-2.486-2.443-4.831-3.724-7.37-4.812-9.761-6.345-21.158-4.123-31.81 1.18-5.118 2.854-10.472 2.888-15.706" fill="#C6D285"/>
  <path d="M83.474 32.023c.087 6.874.465 13.972 1.432 20.909.968 6.936 2.524 13.71 4.35 20.539 1.9 6.73 4.292 13.225 7.2 19.654 1.442 3.129 2.981 6.332 4.671 9.342 1.689 3.011 3.796 5.881 6.449 8.246.097.075.022.171.022.171-.075.097-.172.022-.172.022-2.974-2.15-5.2-5.266-7.382-8.04-1.128-1.338-2.279-2.848-3.653-4.068s-2.75-2.44-3.975-3.853c-1.3-1.317-2.3-3.02-2.862-4.692-.657-1.747-1.218-3.419-2.121-5.047-.808-1.554-1.712-3.182-2.54-4.907-.904-1.628-1.636-3.278-2.294-5.025-2.608-6.816-3.565-14.364-3.01-21.668.704-7.497 3.673-14.323 3.885-21.583m-.022-.172c.153 7.389-2.89 14.311-3.349 21.69-.555 7.304.456 14.584 3.064 21.4a45 45 0 0 0 2.197 4.95c.807 1.553 1.71 3.182 2.54 4.906 1.636 3.279 2.286 7.031 4.811 9.761 1.129 1.338 2.578 2.462 3.878 3.778 1.375 1.22 2.526 2.73 3.654 4.069 2.279 2.848 4.408 5.89 7.307 8.136l-.224.29c-2.654-2.365-4.686-5.332-6.45-8.245a42 42 0 0 1-2.421-4.66c-.808-1.554-1.615-3.108-2.347-4.758-2.982-6.332-5.471-12.901-7.371-19.632-2.072-6.71-3.382-13.602-4.35-20.539-.72-7.055-1.173-14.057-.94-21.146" fill="#3D5530"/>
  <path d="M112.187 116.141c-2.769-1.217-5.826-1.265-8.786-1.238-.954.034-1.908.068-2.841.273-.836.281-1.747.658-2.39 1.088-2.27 1.334-4.23 3.064-5.974 5.115.718-.526 1.049-1.353 1.573-2.029 1.401-2.008 3.167-3.888 5.363-5.126 2.196-1.237 4.822-1.832 7.236-1.353 2.168.596 4.175 1.997 5.819 3.27" fill="#C6D285"/>
  <path d="M112.283 116.216a17 17 0 0 0-5.439-.966c-1.833-.028-3.667-.057-5.554.182-1.79.315-3.419 1.218-4.929 2.369a21.3 21.3 0 0 0-3.95 3.9l-.193-.15c.792-.624 1.102-1.621 1.7-2.395.6-.773 1.274-1.643 1.97-2.341 1.466-1.493 3.147-2.665 5.141-3.441 1.918-.679 4.073-.866 6.069-.247 1.899.543 3.617 1.719 5.185 3.089m-.096-.075c-1.622-1.101-3.415-2.181-5.314-2.724s-3.957-.283-5.801.3c-1.918.679-3.525 1.754-4.916 3.151-.696.698-1.392 1.397-1.99 2.17-.6.773-1.006 1.696-1.873 2.416-.075.097-.172.022-.172.022-.096-.075-.021-.172-.021-.172 1.22-1.374 2.611-2.771 4.046-3.825 1.51-1.15 3.117-2.225 4.982-2.636 1.962-.336 3.796-.308 5.651-.107 1.856.2 3.83.647 5.408 1.405" fill="#3D5530"/>
  <path d="M132.695 118.42c-5.456 1.651-11.655.869-16.498-2.265-2.179-1.379-3.984-3.242-6.089-4.718-5.316-4.118-11.636-6.541-18.232-7.011 5.612 2.338 11.247 4.847 16.08 8.592 2.803 2.172 5.306 4.73 8.611 6.054 2.844 1.12 6.063 1.758 9.066 2.074.976.138 2.027.179 3.078.219.611.01 2.005.008 2.766-.176.858-.109 1.96-1.73 2.665-3.04-.343.044-1.029.131-1.447.271" fill="#BABB96"/>
  <path d="M132.791 118.495c-3.612 1.068-7.429 1.204-11.034.267a20.7 20.7 0 0 1-5.151-2.136c-1.6-.93-3.071-2.224-4.446-3.444-2.75-2.44-5.896-4.569-9.223-6.064s-7.007-2.335-10.793-2.639l.053-.269c3.692 1.624 7.362 3.075 10.926 5.063 1.696 1.005 3.489 2.085 5.036 3.283 1.643 1.273 3.114 2.568 4.661 3.766 1.546 1.199 3.242 2.204 5.238 2.822 1.824.64 3.723 1.183 5.772 1.533.976.138 1.953.276 3.004.317s1.952.275 2.981.144l1.469-.099c.536.106.933-.205 1.232-.592.696-.698 1.198-1.547 1.701-2.395l.097.075c-.59.162-1.105.227-1.523.368m-.021-.172c.418-.14.932-.205 1.447-.271-.503.848-1.005 1.697-1.776 2.492-.299.386-.867.72-1.307.688l-1.469.1c-1.029.13-2.005-.007-3.056-.048s-2.027-.179-3.003-.317a38 38 0 0 1-5.922-1.34c-1.996-.618-3.789-1.698-5.335-2.896-1.644-1.273-3.115-2.568-4.662-3.766-1.546-1.199-3.264-2.375-5.035-3.283-3.392-2.01-7.085-3.633-10.776-5.256-.097-.075-.097-.075-.022-.172s.075-.097.171-.022c3.786.304 7.391 1.241 10.793 2.64 3.402 1.398 6.623 3.43 9.545 5.848 1.449 1.123 2.824 2.343 4.349 3.37s3.274 1.763 5.076 2.232c3.627 1.109 7.466 1.144 10.982.001M80.883 45.947c.157-2.198.313-4.397.374-6.67.06-2.274.045-4.451-.067-6.703-.11-2.252-.222-4.503-.237-6.68.06-2.274.217-4.473.888-6.737-.328 2.22-.313 4.398-.202 6.65l.41 6.658c.11 2.252.05 4.526-.106 6.724-.232 2.296-.56 4.516-1.06 6.758" fill="#3D5530"/>
  <path d="M125.365 121.093c-2.305.379-4.547-.12-6.843-.352-3.1-.391-6.306-.246-9.35.489 4.18-1.402 8.543-2.043 12.897-2.072.44.031.879.063 1.244.191.998.309 1.643 1.273 2.417 1.872-.119-.247-.29-.225-.365-.128" fill="#C6D285"/>
  <path d="M125.365 121.093c-1.373.174-2.767.177-4.086.082s-2.735-.263-4.054-.357-2.639-.188-4.033-.185c-1.297.077-2.67.251-4.02.597 0 0-.172.022-.193-.15 0 0-.022-.171.149-.193 2.755-.96 5.627-1.673 8.544-2.043 1.468-.099 2.937-.198 4.428-.126.783-.012 1.588.147 2.093.693.58.45 1.01 1.092 1.665 1.445-.225.29-.418.14-.493.237m-.022-.172c.171-.021.268.053.44.032l-.075.096c-.655-.352-1.085-.995-1.74-1.348-.58-.449-1.288-.533-1.974-.446-1.469.099-2.863.101-4.407.297-1.372.174-2.916.37-4.363.641a37 37 0 0 0-4.224 1.059l-.118-.247c1.372-.174 2.648-.423 4.02-.597 1.373-.174 2.767-.177 4.161-.179s2.735.263 4.076.528c1.512.244 2.928.413 4.204.164" fill="#3D5530"/>
  <path d="M124.956 120.622c-1.889-1.155-3.351-3.061-3.709-5.194.698.695 1.493 1.466 2.438 2.043 1.696 1.005 3.574 1.377 5.323 2.114.558.278 1.556.587.957 1.36-.449.58-1.479.71-2.187.626-.976-.138-1.974-.447-2.822-.949" fill="#BABB96"/>
  <path d="M124.956 120.622c-.945-.578-1.814-1.252-2.534-2.119-.721-.867-1.119-1.95-1.272-3.15-.021-.172.053-.269.15-.194 0 0 .172-.021.193.15.839 1.114 1.827 2.034 3.018 2.493 1.288.534 2.533.725 3.82 1.259.365.128.633.181.998.309s.633.181 1.042.652c.193.15.162.589.109.858l-.375.483a2.7 2.7 0 0 1-1.082.399c-1.566.024-2.854-.51-4.067-1.14m.075-.097c1.138.727 2.629.8 3.808.476q.514-.066.739-.356l.225-.29c.075-.096.075-.096-.022-.171a2.7 2.7 0 0 0-.751-.428c-.365-.128-.558-.277-.923-.405-1.191-.459-2.554-.897-3.767-1.527s-2.201-1.551-3.19-2.471l.322-.215c.302 1.007.775 1.993 1.249 2.979.57 1.06 1.29 1.927 2.31 2.408" fill="#3D5530"/>
  <path d="M110.87 100.272c-1.179.324-1.927 1.291-2.408 2.311-.983 1.867-1.505 3.938-1.169 5.9.498 2.551 2.079 4.704 3.884 6.566-.399-1.082-1.462-1.906-1.861-2.988-.355-.739-.293-1.619-.305-2.402-.174-1.372-.691-2.701-.79-4.17-.068-1.909.871-4.119 2.649-5.217" fill="#C6D285"/>
  <path d="M110.87 100.272c-1.328.518-2.109 1.924-2.642 3.212-.534 1.288-.875 2.725-.872 4.119.002 1.394.445 2.82 1.208 4.03.764 1.211 1.774 2.303 2.687 3.32l-.321.215c-.42-1.254-1.827-2.034-2.023-3.578-.183-.761-.174-1.373-.261-2.059s-.249-1.275-.432-2.036c-.346-1.351-.445-2.82-.008-4.183.459-1.191 1.432-2.447 2.664-3.04m0 0c-1.113.839-1.84 1.977-2.106 3.318-.362 1.266-.188 2.638.061 3.914.162.59.346 1.351.433 2.037s.002 1.394.164 1.983c.152 1.201 1.409 2.175 1.851 3.6.097.075.022.172-.15.194-.074.096-.171.021-.268-.054-1.01-1.092-1.848-2.205-2.709-3.491-.763-1.21-1.377-2.614-1.476-4.083-.1-1.469.316-3.003.925-4.387.352-.655.705-1.31 1.154-1.89.718-.527 1.264-1.032 2.121-1.141" fill="#3D5530"/>
  <path d="M84.962 77.414c-2.92-7.212-4.092-15.08-3.506-22.824" stroke="#3D5530" stroke-width=".25" stroke-miterlimit="10" stroke-linecap="round" stroke-linejoin="round"/>
  <path d="M86.24 78.56a91.3 91.3 0 0 1-4.33-27.95" stroke="#3D5530" stroke-width=".25" stroke-miterlimit="10" stroke-linecap="round" stroke-linejoin="round"/>
  <path d="M83.692 63.283c-.822-3.73-1.129-7.526-.996-11.29m-16.852 67.065c4.698-4.867 11.03-7.849 17.699-8.869 6.668-1.02 13.501-.057 19.8 2.194m-18.087-3.806c3.43-.435 7.023-.281 10.457.678" stroke="#3D5530" stroke-width=".25" stroke-miterlimit="10" stroke-linecap="round" stroke-linejoin="round"/>
  <path d="M74.584 113.766c3.032-1.518 6.301-2.543 9.657-2.881m-9.581 15.159c5.321.72 10.873-.856 14.867-4.413" stroke="#3D5530" stroke-width=".25" stroke-miterlimit="10" stroke-linecap="round" stroke-linejoin="round"/>
  <path d="M83.226 124.173c2.186-.626 4.158-1.573 5.796-3.088m-14.035 1.345c4.912.248 10.002-1.531 13.6-4.776" stroke="#3D5530" stroke-width=".25" stroke-miterlimit="10" stroke-linecap="round" stroke-linejoin="round"/>
  <path d="M81.718 120.53c4.17-.79 7.165-4.657 11.195-5.865m-17.588 4.933c3.761-1.261 7.62-2.448 11.522-3.292m-6.862.871a38.3 38.3 0 0 1 7.417-1.987m-8.77.938c4.51-2.228 9.872-2.56 14.89-2.848m-21.137 11.31c2.488.382 5.105.398 7.581-.003m-5.75-1.362c1.78.297 3.593.154 5.286-.235m11.17-2.637c1.413-1.225 2.633-2.6 3.853-3.975s2.805-2.622 4.477-3.183m-19.835-3.148c1.576-.636 3.248-1.196 4.985-1.243m-.87-.674c2.776-.788 5.586-.621 8.418-.283m-10.6 14.679c2.7-.691 5.143-2.047 7.199-3.702m-6.854 5.052c2.283-.551 4.426-1.52 6.236-3.057M38.293 77.758c4.023 6.984 10.221 12.56 17.38 16.096 7.16 3.537 15.302 5.205 23.227 5.159" stroke="#3D5530" stroke-width=".25" stroke-miterlimit="10" stroke-linecap="round" stroke-linejoin="round"/>
  <path d="M54.314 94.811c5.905 3.957 13.253 4.855 20.46 5.335 7.11.405 14.446.52 20.982 3.264M55.188 92.086c5.388 2.628 11.257 4.236 17.189 4.965M61.054 92.3c4.818 1.568 9.849 2.062 14.848 2.997 4.999.934 10.02 2.04 14.357 4.627M64.92 89.108c6.127 2.273 13.3 1.798 19.044 5.166M69.39 87.93a60.7 60.7 0 0 1 13.358 4.32m-9.423-4.208c2.629.799 5.183 1.695 7.684 2.86m-6.377-3.549c2.07.522 4.088 1.311 6.128 2.273M45.2 78.624c4.92 4.431 10.91 7.68 17.24 9.491" stroke="#3D5530" stroke-width=".25" stroke-miterlimit="10" stroke-linecap="round" stroke-linejoin="round"/>
  <path d="M68.33 94.689c6.018 1.415 12.302 1.49 17.862 4.096m-33.906-4.152c3.458 2.524 7.397 4.029 11.613 4.976 4.12.871 8.345 1.207 12.571 1.542M24.203 60.808c3.745 1.355 7.512 2.882 11.15 4.773m-9.85-3.456c2.21.94 4.272 2.072 6.28 3.473m-5.137.042c4.248 6.695 7.211 14.25 13.022 19.525M26.129 64.311c2.02 2.184 3.718 4.583 5.021 7.294m55.486 23.812a72 72 0 0 1 15.849 10.887M86.366 93.97c4.605 2.64 9.008 5.741 13.185 9.133M85 92.138c4.562 2.297 9.663 6.095 13.326 9.552M84.343 90.391c4.509 2.566 8.761 5.86 12.693 9.37M86.22 90.763c3.221 2.032 6.217 4.353 9.064 6.868" stroke="#3D5530" stroke-width=".25" stroke-miterlimit="10" stroke-linecap="round" stroke-linejoin="round"/>
</svg>
