<svg viewBox="0 0 24 24" data-name="Layer 1" xmlns="http://www.w3.org/2000/svg">
  <g stroke-width="0"/>
  <g stroke-linecap="round" stroke-linejoin="round"/>
  <path d="m7.12 22.75-5.26-5.26A2.08 2.08 0 0 1 1.25 16a2.08 2.08 0 0 1 2.07-2 2.08 2.08 0 0 1 1.47.61l1.35 1.35V6.24a2 2 0 0 1 1.78-2.06 2 2 0 0 1 2.13 2V12l5.17.74a2 2 0 0 1 1.67 1.94A17.6 17.6 0 0 1 15 22.57l-.09.18m-.95-16.62h7.82m-3.91-3.91v7.82" style="fill:none;stroke:#020202;stroke-miterlimit:10;stroke-width:1.96px"/>
  <path d="m15.67 2.95 2.2-2.2 2.2 2.2zm5.38.98 2.2 2.2-2.2 2.2zm-.98 5.38-2.2 2.2-2.2-2.2zm-5.38-.98-2.2-2.2 2.2-2.2z" style="fill:#020202"/>
</svg>
